# This file uses centimeters as units for non-parametric coordinates.

mtllib bolt2.mtl
g default
v 6.260019 1.269140 0.000000
v 6.196100 0.139904 0.000000
v 4.747269 1.333059 0.000000
v 5.279928 0.416886 0.000000
v 3.191906 -1.798973 0.000000
v 2.382265 -1.415459 0.000000
v 4.150692 0.544724 0.000000
v 3.383663 2.803197 0.000000
v 3.383663 2.803197 0.000000
v 6.260019 1.269140 -0.600000
v 6.196100 0.139904 -0.600000
v 4.747269 1.333059 -0.600000
v 5.279928 0.416886 -0.600000
v 3.191906 -1.798973 -0.600000
v 2.382265 -1.415459 -0.600000
v 4.150692 0.544724 -0.600000
v 3.383663 2.803197 -0.600000
v 3.383663 2.803197 -0.600000
vt 0.297255 0.000000
vt 0.542832 0.000000
vt 0.301961 0.328715
vt 0.494030 0.202004
vt 1.000000 0.627451
vt 0.926797 0.807669
vt 0.480174 0.448366
vt 0.000000 0.642353
vt 0.000000 0.642353
vt 0.297255 0.000000
vt 0.542832 0.000000
vt 0.301961 0.328715
vt 0.494030 0.202004
vt 1.000000 0.627451
vt 0.926797 0.807669
vt 0.480174 0.448366
vt 0.000000 0.642353
vt 0.000000 0.642353
vt 0.297255 0.000000
vt 0.542832 0.000000
vt 0.301961 0.328715
vt 0.494030 0.202004
vt 1.000000 0.627451
vt 0.926797 0.807669
vt 0.480174 0.448366
vt 0.000000 0.642353
vt 0.000000 0.642353
vn 0.000000 0.000000 -1.000000
vn 0.000000 0.000000 -1.000000
vn 0.000000 0.000000 -1.000000
vn 0.000000 0.000000 -1.000000
vn 0.000000 0.000000 -1.000000
vn 0.000000 0.000000 -1.000000
vn 0.000000 0.000000 -1.000000
vn 0.000000 0.000000 -0.000000
vn 0.000000 0.000000 -0.000000
vn 0.000000 0.000000 1.000000
vn 0.000000 0.000000 0.000000
vn 0.000000 0.000000 0.000000
vn 0.000000 0.000000 1.000000
vn 0.000000 0.000000 1.000000
vn 0.000000 0.000000 1.000000
vn 0.000000 0.000000 1.000000
vn 0.000000 0.000000 1.000000
vn 0.000000 0.000000 1.000000
vn 0.998402 -0.056513 0.000000
vn 0.998402 -0.056513 0.000000
vn 0.998402 -0.056513 0.000000
vn 0.998402 -0.056513 0.000000
vn -0.635707 -0.771930 0.000000
vn -0.635707 -0.771930 0.000000
vn -0.635707 -0.771930 0.000000
vn -0.635707 -0.771930 0.000000
vn 0.864507 0.502621 0.000000
vn 0.864507 0.502621 0.000000
vn 0.864507 0.502621 0.000000
vn 0.864507 0.502621 0.000000
vn 0.727789 -0.685801 0.000000
vn 0.727789 -0.685801 0.000000
vn 0.727789 -0.685801 0.000000
vn 0.727789 -0.685801 0.000000
vn -0.428086 -0.903738 0.000000
vn -0.428086 -0.903738 0.000000
vn -0.428086 -0.903738 0.000000
vn -0.428086 -0.903738 0.000000
vn -0.742491 0.669856 0.000000
vn -0.742491 0.669856 0.000000
vn -0.742491 0.669856 0.000000
vn -0.742491 0.669856 0.000000
vn -0.946882 -0.321582 0.000000
vn -0.946882 -0.321582 0.000000
vn -0.946882 -0.321582 0.000000
vn -0.946882 -0.321582 0.000000
vn 0.000000 0.000000 0.000000
vn 0.000000 0.000000 0.000000
vn 0.000000 0.000000 0.000000
vn 0.000000 0.000000 0.000000
vn 0.470588 0.882353 0.000000
vn 0.470588 0.882353 0.000000
vn 0.470588 0.882353 0.000000
vn 0.470588 0.882353 0.000000
s off
g polySurface2
usemtl initialShadingGroup
f 10/19/1 11/20/2 12/21/3 13/22/4 14/23/5 15/24/6 16/25/7 17/26/8 18/27/9
f 1/10/10 9/18/11 8/17/12 7/16/13 6/15/14 5/14/15 4/13/16 3/12/17 2/11/18
f 1/1/19 2/2/20 11/20/21 10/19/22
f 2/2/23 3/3/24 12/21/25 11/20/26
f 3/3/27 4/4/28 13/22/29 12/21/30
f 4/4/31 5/5/32 14/23/33 13/22/34
f 5/5/35 6/6/36 15/24/37 14/23/38
f 6/6/39 7/7/40 16/25/41 15/24/42
f 7/7/43 8/8/44 17/26/45 16/25/46
f 8/8/47 9/9/48 18/27/49 17/26/50
f 9/9/51 1/1/52 10/19/53 18/27/54
